PathFileType	4	(X/Y/Z)	pose_F01_0-92.trc
DataRate	CameraRate	NumFrames	NumMarkers	Units	OrigDataRate	OrigDataStartFrame	OrigNumFrames
30	30	8	21	m	30	0	92
Frame#	Time	CHip			RHip			RKnee			RAnkle			RBigToe			RSmallToe			RHeel			LHip			LKnee			LAnkle			LBigToe			LSmallToe			LHeel			Neck			Nose			RShoulder			RElbow			RWrist			LShoulder			LElbow			LWrist			
		X1	Y1	Z1	X2	Y2	Z2	X3	Y3	Z3	X4	Y4	Z4	X5	Y5	Z5	X6	Y6	Z6	X7	Y7	Z7	X8	Y8	Z8	X9	Y9	Z9	X10	Y10	Z10	X11	Y11	Z11	X12	Y12	Z12	X13	Y13	Z13	X14	Y14	Z14	X15	Y15	Z15	X16	Y16	Z16	X17	Y17	Z17	X18	Y18	Z18	X19	Y19	Z19	X20	Y20	Z20	X21	Y21	Z21	
0	0.0	-0.2628037939121114	1.8866032154054302	-0.5564766796848075	-0.2632242074641108	1.8711811163008258	-0.48136213100191183	-0.2845250009480527	1.740922130104861	-0.49704934337924445													-0.2322840842418449	1.88559601849677	-0.6190897465216502	-0.24242571817966294	1.7260124307287712	-0.6539002716198716	-0.24316044638965092	1.634386246599319	-0.7072712674426873	-0.2429091477787775	1.590882945094082	-0.6697576786801516	-0.2358600737632996	1.5968344286126286	-0.7064792203637514	-0.24677968524297783	1.6121225823539778	-0.7152477559332594	-0.2578114075859881	2.0608686201858597	-0.5844861032909378	-0.23983508802288506	2.128468619076091	-0.5629976983340031	-0.27926737787636313	2.0484891808667416	-0.48700190019697503	-0.2878385098788469	1.9651025565297304	-0.46706581988597784	-0.2995044490411133	1.8736865461016468	-0.4102036174661186	-0.22398446106511438	2.06511374008407	-0.6661757289290223	-0.2389406829298506	1.970573430610155	-0.6888888661494235	-0.2219146911840708	1.8834766288417693	-0.7305305255547108
1	0.03333333333333333	-0.2608784767364428	1.885169675714985	-0.558359804284694	-0.26419460993061733	1.8720372572671133	-0.48459217000719557	-0.2845250009480527	1.740922130104861	-0.49704934337924445													-0.2332494493230324	1.884981017833183	-0.622038212900572	-0.24200008742939516	1.7260352793277194	-0.6523364488392507	-0.24316044638965092	1.634386246599319	-0.7072712674426873	-0.2429091477787775	1.590882945094082	-0.6697576786801516	-0.2358600737632996	1.5968344286126286	-0.7064792203637514	-0.24677968524297783	1.6121225823539778	-0.7152477559332594	-0.25776859268162394	2.05962873527452	-0.5840631886178553	-0.23983373895641116	2.1272050492921597	-0.562429832902257	-0.2792414479204314	2.0485201654426537	-0.48703252791863977	-0.2877423251193415	1.963717192763887	-0.46675957148251845	-0.29758896122039424	1.8741041381909083	-0.4124715563982894	-0.22480032604775776	2.0639690687605996	-0.6686471799924842	-0.23686966447373878	1.970281192344423	-0.6910921748441403	-0.22106771513652582	1.8840456392746732	-0.7275018904241186
2	0.06666666666666667	-0.25895315956077425	1.8837361360245397	-0.5602429288845805	-0.26516501239712387	1.8728933982334008	-0.4878222090124793	-0.2845250009480527	1.740922130104861	-0.49704934337924445													-0.2342148144042199	1.884366017169596	-0.6249866792794939	-0.2415744566791274	1.7260581279266676	-0.6507726260586297	-0.24316044638965092	1.634386246599319	-0.7072712674426873	-0.2429091477787775	1.590882945094082	-0.6697576786801516	-0.2358600737632996	1.5968344286126286	-0.7064792203637514	-0.24677968524297783	1.6121225823539778	-0.7152477559332594	-0.2577257777772598	2.05838885036318	-0.5836402739447729	-0.23983238988993727	2.1259414795082283	-0.5618619674705109	-0.2792155179644996	2.048551150018566	-0.4870631556403045	-0.2876461403598361	1.9623318289980436	-0.46645332307905907	-0.2956734733996752	1.8745217302801698	-0.41473949533046023	-0.22561619103040115	2.0628243974371294	-0.6711186310559462	-0.23479864601762696	1.969988954078691	-0.6932954835388572	-0.22022073908898082	1.884614649707577	-0.7244732552935265
3	0.1	-0.2570278423851057	1.8823025963340945	-0.562126053484467	-0.2661354148636304	1.8737495391996883	-0.49105224801776304	-0.2845250009480527	1.740922130104861	-0.49704934337924445													-0.2351801794854074	1.883751016506009	-0.6279351456584158	-0.2411488259288596	1.7260809765256155	-0.6492088032780088	-0.24316044638965092	1.634386246599319	-0.7072712674426873	-0.2429091477787775	1.590882945094082	-0.6697576786801516	-0.2358600737632996	1.5968344286126286	-0.7064792203637514	-0.24677968524297783	1.6121225823539778	-0.7152477559332594	-0.25768296287289566	2.0571489654518404	-0.5832173592716905	-0.23983104082346338	2.124677909724297	-0.5612941020387647	-0.27918958800856786	2.048582134594478	-0.48709378336196923	-0.2875499556003307	1.9609464652322002	-0.4661470746755997	-0.29375798557895616	1.8749393223694313	-0.41700743426263104	-0.22643205601304453	2.0616797261136592	-0.6735900821194081	-0.23272762756151513	1.969696715812959	-0.695498792233574	-0.21937376304143583	1.885183660140481	-0.7214446201629343
4	0.13333333333333333	-0.2551025252094371	1.8808690566436492	-0.5640091780843535	-0.26710581733013694	1.8746056801659758	-0.4942822870230468	-0.2845250009480527	1.740922130104861	-0.49704934337924445													-0.2361455445665949	1.883136015842422	-0.6308836120373377	-0.24072319517859184	1.7261038251245635	-0.6476449804973878	-0.24316044638965092	1.634386246599319	-0.7072712674426873	-0.2429091477787775	1.590882945094082	-0.6697576786801516	-0.2358600737632996	1.5968344286126286	-0.7064792203637514	-0.24677968524297783	1.6121225823539778	-0.7152477559332594	-0.2576401479685315	2.0559090805405007	-0.5827944445986081	-0.23982969175698948	2.1234143399403655	-0.5607262366070186	-0.2791636580526361	2.04861311917039	-0.48712441108363397	-0.2874537708408253	1.9595611014663568	-0.4658408262721403	-0.2918424977582371	1.8753569144586928	-0.41927537319480185	-0.2272479209956879	2.060535054790189	-0.67606153318287	-0.2306566091054033	1.969404477547227	-0.6977021009282909	-0.21852678699389083	1.885752670573385	-0.7184159850323422
5	0.16666666666666666	-0.25317720803376853	1.879435516953204	-0.56589230268424	-0.2680762197966435	1.8754618211322633	-0.4975123260283305	-0.2845250009480527	1.740922130104861	-0.49704934337924445													-0.2371109096477824	1.882521015178835	-0.6338320784162595	-0.24029756442832406	1.7261266737235117	-0.6460811577167669	-0.24316044638965092	1.634386246599319	-0.7072712674426873	-0.2429091477787775	1.590882945094082	-0.6697576786801516	-0.2358600737632996	1.5968344286126286	-0.7064792203637514	-0.24677968524297783	1.6121225823539778	-0.7152477559332594	-0.2575973330641674	2.054669195629161	-0.5823715299255257	-0.2398283426905156	2.122150770156434	-0.5601583711752725	-0.27913772809670434	2.048644103746302	-0.4871550388052987	-0.2873575860813199	1.9581757377005133	-0.4655345778686809	-0.2899270099375181	1.8757745065479543	-0.42154331212697266	-0.2280637859783313	2.059390383466719	-0.6785329842463319	-0.2285855906492915	1.969112239281495	-0.6999054096230077	-0.21767981094634584	1.8863216810062888	-0.71538734990175
6	0.2	-0.25125189085809996	1.8780019772627587	-0.5677754272841264	-0.26904662226315	1.8763179620985508	-0.5007423650336142	-0.2845250009480527	1.740922130104861	-0.49704934337924445													-0.2380762747289699	1.881906014515248	-0.6367805447951814	-0.2398719336780563	1.7261495223224599	-0.6445173349361459	-0.24316044638965092	1.634386246599319	-0.7072712674426873	-0.2429091477787775	1.590882945094082	-0.6697576786801516	-0.2358600737632996	1.5968344286126286	-0.7064792203637514	-0.24677968524297783	1.6121225823539778	-0.7152477559332594	-0.25755451815980324	2.053429310717821	-0.5819486152524432	-0.2398269936240417	2.120887200372503	-0.5595905057435263	-0.2791117981407726	2.0486750883222142	-0.48718566652696343	-0.2872614013218145	1.95679037393467	-0.4652283294652215	-0.28801152211679903	1.8761920986372158	-0.42381125105914347	-0.22887965096097468	2.0582457121432487	-0.6810044353097938	-0.22651457219317966	1.968820001015763	-0.7021087183177246	-0.21683283489880084	1.8868906914391927	-0.7123587147711579
7	0.23333333333333334	-0.2532363248702464	1.8802444907125366	-0.5658563429800819	-0.27011890232098223	1.8772583211264586	-0.49572377137756846	-0.2845250009480527	1.740922130104861	-0.49704934337924445													-0.23927693809419082	1.8846949316123585	-0.6317784871069995	-0.2394463029277885	1.7261723709214079	-0.642953512155525	-0.24316044638965092	1.634386246599319	-0.7072712674426873	-0.2429091477787775	1.590882945094082	-0.6697576786801516	-0.2358600737632996	1.5968344286126286	-0.7064792203637514	-0.24677968524297783	1.6121225823539778	-0.7152477559332594	-0.2575818834920647	2.05348098850907	-0.5818886645331346	-0.23988073914862737	2.1208646268827005	-0.5596109439296668	-0.27912781135805725	2.0486525585377873	-0.4871070482644996	-0.28541837696550215	1.9606489498602926	-0.46801847055162776	-0.28764380627738145	1.8826306082864284	-0.42482756564937746	-0.22895595334024973	2.059399512560384	-0.6813657666448244	-0.22785973382283786	1.9704883394590667	-0.6971926464984058	-0.22010750274047905	1.8870932427548286	-0.7131688311492513
